<?xml version="1.0" standalone="no"?>
<!DOCTYPE svg PUBLIC "-//W3C//DTD SVG 20010904//EN"
 "http://www.w3.org/TR/2001/REC-SVG-20010904/DTD/svg10.dtd">
<svg version="1.0" xmlns="http://www.w3.org/2000/svg"
 width="370.000000pt" height="370.000000pt" viewBox="0 0 370.000000 370.000000"
 preserveAspectRatio="xMidYMid meet">

<g transform="translate(0.000000,370.000000) scale(0.100000,-0.100000)"
fill="#000000" stroke="none">
<path d="M1507 3399 c-10 -6 -29 -35 -42 -64 -13 -29 -32 -58 -43 -64 -12 -6
-69 -11 -129 -11 l-108 1 -20 32 -20 32 -407 3 -406 2 -22 -27 c-22 -28 -22
-29 -17 -408 5 -394 13 -486 57 -672 11 -47 20 -105 20 -131 0 -40 -5 -51 -38
-85 l-37 -38 0 -179 0 -179 37 -38 38 -39 0 -155 c0 -155 0 -155 -40 -273
l-40 -118 36 -149 36 -148 -38 -115 -38 -116 21 -27 20 -28 548 -3 c396 -1
552 1 561 9 11 9 23 2 55 -30 55 -55 93 -64 263 -59 137 4 143 5 223 41 l81
37 198 0 c170 0 200 2 216 17 17 15 20 14 55 -27 57 -66 74 -70 301 -70 186 0
201 1 226 21 20 16 26 29 26 58 0 21 2 40 5 43 4 3 47 -5 98 -18 122 -31 150
-31 176 2 21 26 21 35 21 591 0 405 -3 570 -11 586 -7 12 -25 34 -40 50 l-29
27 0 182 c0 181 0 182 -25 208 -25 26 -25 28 -10 63 8 21 38 62 65 92 l50 55
0 194 c0 187 -1 199 -35 340 l-35 146 35 70 c32 64 35 77 35 158 0 76 -3 93
-21 116 l-21 27 -199 -3 -199 -3 -6 28 c-12 54 -38 59 -322 55 -216 -2 -262
-6 -287 -20 -39 -21 -68 -55 -85 -95 -11 -28 -17 -33 -46 -33 -36 0 -47 15
-71 95 -15 52 -33 55 -328 55 -169 -1 -277 -5 -288 -11z m508 -170 c4 -17 26
-51 49 -75 l43 -44 94 0 c109 0 131 10 149 68 28 86 16 82 240 82 l200 0 0
-50 c0 -41 5 -56 25 -75 35 -36 69 -31 125 20 22 20 39 23 158 28 l132 6 0
-29 c0 -15 -17 -65 -39 -109 l-38 -79 38 -159 c37 -150 39 -167 39 -319 l0
-160 -31 -30 c-44 -41 -122 -201 -114 -234 4 -14 22 -42 42 -62 35 -36 36 -37
29 -98 -4 -34 -4 -116 0 -182 7 -119 8 -122 41 -158 l33 -37 0 -482 c0 -323
-3 -481 -10 -481 -6 0 -58 12 -116 26 l-105 27 -27 -20 c-23 -17 -27 -29 -30
-77 l-3 -56 -144 0 -143 0 -52 65 c-75 97 -108 104 -181 38 l-39 -35 -123 6
c-159 9 -254 -3 -344 -43 -66 -29 -79 -31 -186 -31 l-115 0 -32 36 c-17 20
-35 47 -40 60 -13 33 -54 58 -85 50 -13 -3 -41 -20 -60 -38 l-36 -31 -445 -2
c-404 -2 -444 0 -439 14 4 9 15 42 25 73 l18 57 -38 147 -37 146 37 107 36
106 0 202 -1 202 -37 38 -38 39 0 114 0 114 36 37 c35 36 35 36 37 135 1 72
-4 128 -21 204 -41 188 -53 341 -50 635 l3 270 305 0 305 0 32 -32 c41 -40 71
-46 231 -42 122 4 131 5 178 34 34 21 55 43 69 72 l20 42 212 1 211 0 7 -31z"/>
<path d="M911 2854 c-74 -19 -141 -40 -149 -46 -22 -19 -32 -56 -23 -80 5 -13
163 -203 351 -423 188 -220 374 -438 414 -485 149 -175 427 -502 594 -697 98
-115 183 -205 195 -208 12 -3 107 -4 212 -3 l189 3 21 31 c23 35 210 463 220
505 10 39 -13 59 -325 296 -231 175 -624 475 -1105 843 -371 284 -395 300
-428 299 -17 0 -92 -16 -166 -35z m412 -313 c144 -110 305 -232 357 -272 868
-662 1067 -814 1077 -823 10 -9 -5 -52 -66 -196 l-79 -185 -133 -2 -134 -3
-60 72 c-33 40 -143 169 -244 288 -101 118 -255 298 -341 400 -376 441 -665
779 -710 831 l-49 57 57 15 c31 8 58 15 60 16 2 1 121 -89 265 -198z"/>
<path d="M2235 2811 c-249 -84 -266 -95 -251 -154 6 -27 50 -61 520 -409 127
-94 165 -108 200 -69 20 22 102 478 92 516 -9 36 -255 195 -299 194 -17 -1
-135 -36 -262 -78z m330 -122 c46 -31 75 -57 75 -68 0 -22 -40 -244 -45 -249
-2 -2 -87 58 -190 133 -102 76 -184 139 -182 141 2 2 62 24 133 48 71 24 130
45 131 45 2 1 36 -22 78 -50z"/>
<path d="M913 1705 c-23 -16 -31 -38 -128 -380 -44 -157 -54 -204 -46 -221 16
-36 328 -264 360 -264 21 0 409 124 483 155 25 10 41 57 29 86 -5 13 -148 162
-318 332 -324 323 -330 327 -380 292z m487 -615 c0 -3 -65 -26 -144 -51 l-143
-46 -110 84 -110 84 38 131 c21 71 44 148 50 171 l11 40 204 -204 c112 -112
204 -206 204 -209z"/>
</g>
</svg>
