<?xml version="1.0" standalone="no"?>
<!DOCTYPE svg PUBLIC "-//W3C//DTD SVG 20010904//EN"
 "http://www.w3.org/TR/2001/REC-SVG-20010904/DTD/svg10.dtd">
<svg version="1.0" xmlns="http://www.w3.org/2000/svg"
 width="900.000000pt" height="900.000000pt" viewBox="0 0 900.000000 900.000000"
 preserveAspectRatio="xMidYMid meet">

<g transform="translate(0.000000,900.000000) scale(0.100000,-0.100000)"
fill="#000000" stroke="none">
<path d="M4101 7754 c-67 -38 -192 -147 -332 -291 -182 -186 -299 -372 -345
-545 l-18 -68 33 -77 c48 -111 70 -198 70 -278 0 -86 -11 -155 -22 -137 -16
25 -48 13 -63 -24 -32 -75 -33 -314 -3 -351 8 -8 23 -13 36 -10 23 4 24 3 21
-66 -2 -39 -8 -72 -14 -74 -18 -6 -130 205 -197 372 -35 88 -98 261 -140 385
-111 332 -164 589 -169 825 -3 92 -6 110 -19 113 -40 8 -94 -154 -125 -373
-15 -105 -17 -207 -15 -807 2 -379 1 -688 -2 -688 -5 0 -83 191 -109 265 -11
32 -19 40 -38 40 -34 0 -37 -19 -45 -373 -7 -336 -1 -418 51 -618 72 -281 281
-812 346 -881 17 -18 21 -34 19 -71 -2 -41 20 -177 35 -217 7 -17 -51 -51
-216 -126 -123 -55 -266 -106 -275 -97 -8 7 91 122 138 161 56 46 59 68 18
124 -60 83 -130 113 -281 120 -147 7 -387 -30 -432 -67 -34 -27 -14 -51 63
-76 80 -26 154 -64 198 -101 l33 -29 -52 -32 c-29 -18 -54 -31 -56 -29 -2 2 8
19 23 40 51 72 4 86 -135 38 -100 -35 -177 -80 -248 -144 -44 -40 -55 -46 -60
-33 -16 42 60 230 158 392 74 123 90 171 64 193 -13 11 -22 9 -58 -12 -98 -58
-339 -278 -422 -387 -126 -163 -216 -383 -172 -419 12 -10 26 -10 64 -2 35 7
61 7 88 -1 43 -11 114 -45 114 -54 0 -3 -16 -40 -35 -81 -25 -54 -32 -80 -25
-87 6 -6 43 -11 83 -11 56 -1 90 -8 157 -34 47 -18 92 -41 100 -50 9 -10 29
-21 45 -25 17 -4 117 -50 223 -102 106 -51 197 -94 202 -94 6 0 29 17 53 39
58 53 105 81 315 188 223 113 420 176 614 197 l56 6 40 -73 c48 -86 122 -159
247 -242 98 -64 347 -308 339 -330 -8 -20 35 -61 151 -143 101 -72 113 -84
150 -150 22 -40 70 -110 108 -157 37 -47 70 -90 72 -97 3 -7 -12 -24 -33 -36
-50 -32 -109 -106 -153 -190 -32 -63 -37 -68 -47 -51 -14 23 -50 24 -97 5 -27
-12 -36 -23 -45 -57 -20 -74 16 -203 64 -229 37 -19 46 -5 46 70 0 66 17 138
27 113 9 -24 30 -13 63 30 19 23 46 52 62 65 l28 23 -6 -88 c-5 -72 -3 -98 13
-145 l20 -58 -22 0 c-27 0 -37 -34 -25 -86 12 -52 37 -84 65 -84 26 0 43 35
31 65 -13 34 12 10 58 -55 37 -53 55 -70 72 -70 35 0 39 34 15 127 -12 45 -21
93 -21 107 l0 26 54 -30 c30 -17 83 -37 118 -45 34 -7 54 -14 42 -14 -35 -2
-54 -24 -73 -89 -17 -53 -17 -64 -5 -76 11 -11 22 -12 51 -4 20 5 49 7 65 4
34 -7 73 7 81 29 10 24 -34 102 -66 118 -26 13 -23 14 65 20 93 6 318 63 341
86 21 21 -12 38 -86 44 -128 12 -128 10 -24 91 50 39 104 89 119 111 47 68 60
207 20 223 -10 3 -27 -8 -50 -34 -19 -22 -31 -30 -27 -19 46 124 39 182 -38
284 -67 88 -64 86 -80 73 -11 -9 -13 -35 -11 -110 2 -53 1 -88 -2 -77 -15 51
-38 84 -75 104 -22 13 -46 20 -54 17 -12 -4 -15 6 -15 54 l0 60 38 0 c38 0 62
14 62 36 0 17 -49 66 -60 59 -23 -14 -7 12 40 66 49 57 51 60 41 96 -6 21 -13
70 -17 109 -5 57 -3 77 11 105 30 57 136 210 176 254 21 23 53 72 70 109 17
37 33 65 36 63 7 -8 -45 -225 -78 -327 -17 -52 -60 -162 -96 -244 -76 -172
-86 -218 -54 -236 29 -15 42 -6 158 108 158 157 393 452 611 768 8 12 11 13 9
4 -16 -55 -50 -289 -44 -303 3 -9 17 -17 29 -17 19 0 42 33 136 189 244 407
347 664 371 916 7 72 21 125 70 260 168 462 199 516 456 784 157 163 287 239
428 250 56 4 82 10 88 21 18 36 49 342 49 485 0 275 -23 435 -97 689 -45 157
-65 193 -190 349 -171 214 -232 267 -268 237 -24 -20 -18 -58 19 -119 84 -140
126 -271 126 -392 0 -147 -121 -659 -156 -659 -10 0 -14 13 -14 45 0 30 -14
77 -41 142 -127 303 -128 306 -142 413 l-13 105 -29 0 c-24 0 -39 -12 -78 -60
-27 -33 -59 -81 -73 -107 l-23 -46 -78 44 c-43 24 -113 58 -157 75 -83 32
-296 89 -333 89 -22 0 -23 3 -23 109 0 170 -41 455 -101 700 -38 154 -55 198
-81 207 -35 11 -49 -19 -83 -177 -41 -187 -93 -382 -147 -549 -43 -133 -58
-163 -58 -115 0 37 -43 225 -76 335 -36 119 -116 277 -179 353 -62 75 -148
147 -238 201 -103 61 -133 36 -73 -61 44 -72 69 -142 102 -297 31 -141 39
-353 16 -418 -15 -43 -20 -42 -116 16 -67 40 -78 43 -100 20 -12 -12 -16 -37
-16 -102 0 -118 -22 -162 -138 -283 l-91 -94 -1 53 c0 105 -51 374 -144 767
-41 172 -48 176 -111 55 -71 -136 -350 -702 -362 -735 -27 -73 -26 -72 -34
-25 -14 82 -9 281 9 381 25 137 20 144 -65 79 -29 -22 -53 -36 -53 -31 0 4 9
34 20 66 11 32 20 66 20 75 0 9 17 47 37 85 20 39 59 114 87 168 28 53 84 140
124 191 85 109 92 140 23 100z m1289 -1119 c0 -30 -232 -503 -238 -485 -3 8 1
70 8 139 6 69 11 144 9 166 -7 71 -29 60 -163 -79 -66 -69 -127 -126 -135
-126 -10 0 -12 10 -8 41 8 59 49 136 107 201 54 61 64 65 295 132 48 13 125
21 125 11z m633 -365 c64 -79 140 -191 133 -197 -1 -2 -27 7 -55 21 -29 13
-93 35 -143 48 l-90 23 6 85 c4 47 10 105 13 130 l6 44 34 -39 c19 -22 62 -74
96 -115z m-1023 -292 c22 -13 40 -26 40 -30 0 -4 -24 -34 -52 -67 l-53 -60
-26 32 c-16 19 -24 37 -20 47 8 20 62 100 68 100 2 0 22 -10 43 -22z m910
-271 c-120 -182 -168 -384 -174 -718 -3 -204 -4 -219 -34 -324 -63 -222 -59
-221 -55 -25 3 96 1 216 -5 265 -8 85 -7 97 24 220 18 72 46 173 62 225 34
105 44 154 67 340 23 181 18 175 82 106 l54 -58 -21 -31z"/>
<path d="M4070 2366 c-31 -34 -21 -56 27 -56 38 1 73 18 73 37 0 16 -35 43
-57 43 -11 0 -30 -11 -43 -24z"/>
<path d="M5375 2330 c-4 -6 -1 -43 6 -83 11 -64 15 -218 7 -272 -5 -32 36 -32
50 -1 6 14 34 42 62 62 53 38 66 64 56 117 -17 92 -152 224 -181 177z"/>
<path d="M4142 2150 c-114 -34 -112 -31 -112 -174 0 -151 8 -161 79 -92 25 24
64 53 86 64 39 19 42 25 68 112 15 50 25 95 22 100 -9 15 -73 10 -143 -10z"/>
<path d="M5453 1766 c3 -8 -4 -21 -18 -30 -13 -9 -36 -36 -50 -61 -42 -71 -18
-104 66 -90 49 8 79 35 79 70 0 42 -49 125 -73 125 -5 0 -7 -6 -4 -14z"/>
<path d="M4252 1388 c-19 -25 -39 -73 -35 -85 7 -20 118 -17 137 3 30 29 18
66 -27 83 -37 14 -62 14 -75 -1z"/>
<path d="M5210 1301 c-30 -65 -23 -81 35 -81 52 0 85 25 85 66 0 45 -17 64
-59 64 -35 0 -39 -3 -61 -49z"/>
</g>
</svg>
