<?xml version="1.0" standalone="no"?>
<!DOCTYPE svg PUBLIC "-//W3C//DTD SVG 20010904//EN"
 "http://www.w3.org/TR/2001/REC-SVG-20010904/DTD/svg10.dtd">
<svg version="1.0" xmlns="http://www.w3.org/2000/svg"
 width="900.000000pt" height="417.000000pt" viewBox="0 0 900.000000 417.000000"
 preserveAspectRatio="xMidYMid meet">

<g transform="translate(0.000000,417.000000) scale(0.100000,-0.100000)"
fill="#000000" stroke="none">
<path d="M3320 3600 c-111 -10 -136 -17 -191 -57 -83 -59 -154 -147 -169 -207
-19 -80 -9 -240 18 -291 25 -47 56 -112 104 -215 88 -188 120 -248 135 -259
21 -14 107 -129 119 -158 12 -28 11 -40 -7 -100 -27 -85 -22 -143 20 -247 17
-43 31 -95 31 -117 0 -82 -34 -113 -216 -195 -112 -50 -127 -61 -231 -163
-111 -108 -135 -156 -141 -283 -2 -53 -1 -105 3 -115 4 -10 10 -27 12 -38 6
-35 56 -98 113 -142 30 -23 58 -42 61 -43 4 0 29 -20 55 -46 53 -49 111 -91
159 -116 17 -9 62 -32 100 -52 39 -20 78 -36 88 -36 24 0 199 -50 212 -61 28
-22 201 -59 320 -69 419 -34 557 -35 690 -5 33 8 128 17 210 20 83 3 195 15
250 25 55 10 116 22 135 25 107 18 316 84 415 131 17 8 73 31 125 52 52 21
126 61 163 88 38 27 76 54 85 59 103 63 200 142 203 167 2 13 5 22 15 43 5 11
8 53 8 93 -2 85 -32 155 -114 264 -49 65 -90 158 -90 205 0 13 -4 31 -9 41
-13 24 -61 169 -61 185 0 12 -76 140 -112 187 -10 14 -43 62 -72 107 -30 45
-59 88 -65 95 -6 7 -33 47 -60 89 -27 42 -66 89 -87 105 -56 40 -144 126 -144
140 0 15 -53 62 -132 115 -35 24 -67 48 -73 54 -18 20 -120 92 -155 110 -19
10 -37 21 -40 25 -7 10 -156 93 -210 117 -25 11 -55 30 -68 41 -110 98 -128
107 -384 197 -37 13 -86 36 -110 52 -71 46 -87 52 -174 73 -47 11 -97 25 -112
31 -29 11 -107 26 -182 34 -120 13 -149 18 -195 30 -70 18 -146 23 -245 15z
m404 -91 c317 -58 721 -231 1071 -457 39 -25 110 -61 158 -81 49 -20 88 -41
87 -46 -1 -6 -41 -55 -89 -110 l-87 -100 -181 -29 -180 -29 -7 -166 c-4 -91
-11 -256 -16 -366 -5 -110 -10 -236 -10 -281 l0 -81 128 -61 c145 -69 199 -92
217 -92 8 0 54 56 104 125 50 69 87 125 83 125 -4 0 -112 -23 -241 -50 -128
-28 -238 -50 -245 -49 -6 1 103 30 243 65 140 35 257 67 260 70 3 3 -21 138
-53 300 -32 162 -57 296 -55 299 3 2 33 -131 69 -295 35 -165 67 -300 72 -300
4 0 46 30 93 66 47 36 85 63 85 61 0 -3 -40 -37 -89 -76 -49 -39 -92 -78 -95
-87 -3 -9 -7 -43 -8 -77 l-1 -62 -6 59 -6 58 -93 -123 -93 -123 62 -24 c35
-13 75 -24 91 -25 15 -1 28 -5 28 -9 0 -10 125 -36 205 -43 69 -6 70 -6 48 12
-23 19 -33 68 -19 92 5 7 22 21 38 31 30 18 30 18 9 30 -31 16 -16 30 33 30
56 0 142 -39 181 -81 21 -23 25 -30 12 -26 -11 4 -30 10 -44 13 -23 6 -24 5
-14 -14 6 -11 16 -22 23 -25 9 -3 5 -13 -12 -32 l-25 -28 35 7 c19 4 50 9 67
11 18 1 53 15 77 29 111 65 148 206 96 371 -28 88 -57 146 -131 261 -33 50
-59 94 -59 97 0 4 -85 118 -188 254 -103 137 -192 255 -197 263 -15 25 142
-109 258 -220 337 -321 547 -663 547 -889 l0 -62 64 -60 c81 -75 116 -142 116
-218 -1 -286 -505 -533 -1260 -618 -181 -20 -671 -23 -840 -4 -370 40 -656
113 -873 222 -209 104 -311 220 -311 354 -1 180 206 348 586 475 l97 32 -20
51 c-57 143 -149 390 -147 392 2 2 90 -32 196 -74 180 -72 199 -82 290 -155
120 -96 352 -252 491 -331 l104 -59 -6 -110 c-11 -197 -27 -430 -32 -463 -3
-17 -39 -79 -80 -138 -41 -59 -75 -109 -75 -111 0 -2 47 -4 105 -4 58 0 105 1
105 3 0 2 -7 27 -16 56 -8 29 -14 55 -11 57 2 2 12 -24 22 -57 l19 -62 156 7
155 7 28 32 c16 17 38 52 49 77 12 25 24 47 28 50 20 13 72 113 79 152 l9 43
1 -50 2 -50 13 35 c7 19 33 73 58 120 37 70 53 89 86 106 l40 21 -51 21 c-29
11 -101 37 -161 57 -498 167 -1043 512 -1447 915 -419 417 -591 820 -446 1037
62 93 165 141 327 152 123 8 181 4 314 -20z m1183 -991 c-3 -8 -6 -5 -6 6 -1
11 2 17 5 13 3 -3 4 -12 1 -19z m-1397 -218 c-8 -5 -19 -10 -25 -10 -5 0 -3 5
5 10 8 5 20 10 25 10 6 0 3 -5 -5 -10z m-40 -14 c0 -2 -7 -7 -16 -10 -8 -3
-12 -2 -9 4 6 10 25 14 25 6z m2121 -193 c50 -53 89 -155 89 -230 0 -53 -12
-55 -30 -5 l-14 37 -8 -39 c-5 -21 -16 -44 -25 -51 -14 -10 -10 -14 26 -28 31
-13 41 -22 41 -39 0 -33 -20 -98 -29 -98 -5 0 -33 11 -63 24 -30 13 -100 39
-156 56 -56 18 -102 36 -102 41 0 5 7 27 16 50 16 38 19 40 47 35 25 -5 28 -3
22 12 -18 47 -16 72 10 130 39 87 72 111 119 87 29 -16 31 -11 11 25 -8 14
-14 29 -15 33 0 12 33 -9 61 -40z m-271 3 c0 -2 -8 -10 -17 -17 -16 -13 -17
-12 -4 4 13 16 21 21 21 13z m-40 -29 c0 -2 -10 -12 -22 -23 l-23 -19 19 23
c18 21 26 27 26 19z m-253 -434 c-2 -16 -4 -5 -4 22 0 28 2 40 4 28 2 -13 2
-35 0 -50z m-402 -323 c-70 -93 -130 -170 -132 -170 -3 0 6 15 19 33 13 17 71
96 127 175 57 79 106 141 109 138 2 -3 -53 -82 -123 -176z m-477 -639 c10 -1
10 -6 2 -21 -10 -19 -8 -20 111 -20 67 0 120 -2 118 -4 -2 -2 -63 -7 -135 -11
l-130 -7 -12 27 c-17 37 -15 45 11 41 12 -3 28 -5 35 -5z m540 -13 c-3 -8 -27
-14 -64 -15 l-59 -1 48 8 c27 5 52 11 55 14 10 11 24 6 20 -6z m-150 -17 c3
-8 -1 -12 -9 -9 -7 2 -15 10 -17 17 -3 8 1 12 9 9 7 -2 15 -10 17 -17z"/>
<path d="M3517 3370 c-104 -17 -202 -72 -233 -132 l-16 -32 42 37 c68 58 258
103 385 92 83 -8 345 -70 389 -92 71 -36 87 -68 28 -58 -39 6 -39 6 -34 -25
l4 -31 82 6 c44 4 119 10 166 13 l85 7 -120 51 c-302 129 -599 192 -778 164z"/>
<path d="M3757 2445 l-29 -34 31 10 c23 8 31 17 31 35 0 30 1 30 -33 -11z"/>
<path d="M3629 2397 c23 -25 25 -26 55 -10 17 8 32 16 33 18 2 1 -12 1 -30 1
-17 0 -43 3 -57 8 l-25 8 24 -25z"/>
<path d="M3750 2389 c-19 -11 -45 -19 -57 -19 -13 0 -23 -4 -23 -8 0 -4 29
-37 65 -72 l65 -64 -1 69 c-1 39 -4 80 -7 91 -7 22 -7 22 -42 3z"/>
<path d="M3390 2221 c0 -10 202 -487 229 -538 12 -24 26 -43 31 -43 15 0 51
-43 67 -80 70 -164 106 -232 115 -216 4 7 10 54 14 105 6 83 3 155 -25 505
l-6 79 -180 84 c-223 105 -245 114 -245 104z"/>
<path d="M3505 1671 c-114 -44 -233 -112 -295 -169 -61 -54 -110 -137 -110
-181 1 -22 3 -20 14 12 29 80 78 129 236 233 64 43 164 77 212 72 37 -3 39 -3
33 22 -4 14 -9 28 -13 32 -4 4 -39 -6 -77 -21z"/>
<path d="M3575 1606 c-18 -13 -17 -14 13 -21 18 -3 32 -11 32 -17 0 -6 2 -9 5
-6 8 7 -13 58 -23 58 -4 0 -17 -6 -27 -14z"/>
<path d="M5835 1398 c-21 -18 -42 -32 -45 -31 -3 2 -13 0 -22 -3 -22 -6 -24
-24 -4 -24 25 0 46 -42 46 -89 0 -24 3 -42 6 -39 7 8 7 102 -1 127 -3 12 -3
21 2 21 15 0 35 -42 42 -89 6 -44 8 -45 19 -23 21 36 26 113 11 150 l-14 33
-40 -33z"/>
<path d="M5755 1123 c-21 -27 -28 -39 -16 -28 23 19 66 75 59 75 -2 0 -21 -21
-43 -47z"/>
<path d="M3943 889 c-3 -12 -19 -27 -36 -34 l-30 -12 59 -11 c32 -5 60 -9 62
-7 5 4 -37 85 -44 85 -3 0 -8 -9 -11 -21z"/>
<path d="M4861 866 c-19 -20 -32 -38 -28 -42 3 -3 34 -3 69 1 l63 8 -32 15
c-18 8 -33 24 -35 34 -3 17 -8 14 -37 -16z"/>
</g>
</svg>
